<?xml version="1.0" encoding="UTF-8"?>
<svg id="Layer_2" data-name="Layer 2" xmlns="http://www.w3.org/2000/svg" viewBox="0 0 619.13 619.13">
  <defs>
    <style>
      .cls-1, .cls-2 {
        stroke-width: 0px;
      }

      .cls-2 {
        fill: #fff;
      }
    </style>
  </defs>
  <g id="Layer_1-2" data-name="Layer 1">
    <g>
      <circle class="cls-1" cx="309.56" cy="309.56" r="309.56"/>
      <g>
        <g>
          <path class="cls-2" d="m209.66,171.79c-.84,1.34-1.42,3.51-2.58,3.89-10.82,3.56-12.89,7.7-6.48,17.45,8.12,12.35,17.2,24.09,26.02,35.98,8.43,11.36,17.18,22.49,25.48,33.94,1.52,2.1,2.14,5.27,2.17,7.95.19,17.69.06,35.39.12,53.08.02,4.42.05,8.88.64,13.24,1.38,10.21,5.7,14.6,15.75,16.83,1.33.29,2.55,1.06,3.57,2.97h-68.35l-.46-1.4c1.53-.57,3.02-1.44,4.61-1.66,8.13-1.14,12.52-6.1,14.06-13.77.78-3.88,1.28-7.88,1.3-11.83.14-20.13.17-40.26-.02-60.38-.03-2.64-.93-5.74-2.5-7.81-16.05-21.13-32.2-42.17-48.57-63.05-8.07-10.3-18.07-18.08-31.07-21.51-1.18-.31-1.85-2.57-2.75-3.93,23.02,0,46.04,0,69.07,0Z"/>
          <g>
            <path class="cls-2" d="m336.5,171.43c-1.1,1.38-1.99,3.66-3.34,3.99-10.04,2.42-14.27,6.64-15.84,16.8-.51,3.35-.95,6.74-.96,10.12-.08,32.61-.32,65.21.01,97.82.27,27.14,18.87,48.17,45.66,51.36,21.12,2.51,37.29-6.82,49.36-23.71,6.43-9,10-19.15,11.21-30.19.21-1.88,1.67-3.61,2.55-5.41.63,1.85,1.96,3.75,1.8,5.53-3.26,35.68-32.38,63.33-67.35,64.14-36.34.85-66.61-24.73-71.68-60.88-.81-5.79-.51-11.75-.52-17.63-.05-25.36.04-50.72-.07-76.08-.02-5.19-.38-10.42-1.14-15.54-1.45-9.86-5.77-13.99-15.48-16.32-1.42-.34-2.38-2.61-3.56-3.99,23.11,0,46.23,0,69.34,0Z"/>
            <path class="cls-2" d="m460.23,171.43c-.61,1.39-1.03,3.86-1.87,4.01-26.43,4.68-26.24,23.69-33.53,36.42-1.05-3.45-5.22-31.13-31.98-36.34-1.33-.26-2.23-2.68-3.33-4.09,23.57,0,47.14,0,70.7,0Z"/>
          </g>
        </g>
        <g>
          <path class="cls-2" d="m285.29,402.06c-1.15,2.53-2.55,4.97-3.42,7.6-3.5,10.54-6.83,21.13-10.23,31.7-.09.29-.09.63-.25.86-.46.69-.98,1.34-1.47,2-.43-.63-1.01-1.2-1.27-1.89-2.94-7.87-5.83-15.76-8.73-23.65-.41-1.12-.85-2.24-1.44-3.79-.4,1-.7,1.65-.92,2.32-2.57,8-5.14,16-7.7,24-.15.48-.26.98-.5,1.41-.32.57-.74,1.09-1.12,1.62-.48-.56-1.17-1.04-1.42-1.69-1.91-5.05-3.74-10.14-5.59-15.21-2.23-6.11-4.43-12.23-6.7-18.32-.94-2.53-1.95-5.05-4.01-6.95h11.43c-1.41,2.02-1.2,4.09-.37,6.28,2.58,6.82,5.09,13.67,7.64,20.5.21.55.53,1.06.92,1.82.32-.89.55-1.45.73-2.02,2.01-6.17,4-12.35,6.02-18.52,1-3.07,2.33-5.95,4.93-8.06h.6c-.19,2.55.49,4.94,1.38,7.29,2.39,6.35,4.76,12.71,7.15,19.06.26.68.56,1.35,1.09,2.61,2.71-8.41,5.24-16.17,7.67-23.95.55-1.77.48-3.59-1.05-5.01,2.21,0,4.41,0,6.62,0Z"/>
          <path class="cls-2" d="m479.83,402.06c.72,7.07,1.43,14.14,2.16,21.21.31,2.99.64,5.97.96,8.96.45,4.17.77,8.38,4.07,11.95h-11.41c.28-.77.56-1.36.7-1.97.3-1.35.85-2.74.74-4.07-.62-7.15-1.4-14.28-2.21-22.13-2.53,5.3-4.76,9.98-7,14.65-1.42,2.98-2.81,5.98-4.28,8.94-.7,1.41-1.45,2.84-3.41,3.4-.27-5.11-2.69-9.27-4.81-13.54-2.17-4.38-4.34-8.77-6.52-13.16-.31.17-.58.24-.59.34-.87,7.25-1.81,14.49-2.52,21.76-.18,1.86.4,3.8.64,5.82h-5.91c2.86-3.07,2.48-6.8,2.95-10.26,1.19-8.82,2.17-17.68,3.24-26.52.22-1.79.47-3.57.7-5.36.4,0,.8,0,1.2,0,5.05,10.1,10.11,20.2,15.37,30.7,4.23-9.01,8.23-17.51,12.19-26.02.71-1.53,1.29-3.12,1.93-4.69.6,0,1.2,0,1.81,0Z"/>
          <path class="cls-2" d="m409.36,402.06c.69.37,1.39.72,2.08,1.1,4.13,2.32,6.27,5.86,6.06,10.59-.2,4.75-3.27,8.56-7.77,10.04-.93.31-1.88.53-3.14.89,4.22,5.35,8.23,10.6,12.45,15.67,1.23,1.48,3.04,2.47,4.58,3.68-5.51,1.13-10.31.06-13.94-4.75-3.26-4.32-6.62-8.56-9.93-12.83-.43-.55-.77-1.26-1.33-1.6-.54-.32-1.36-.43-1.95-.27-.34.09-.69.92-.68,1.41.13,5.98-.71,12.03,1.34,18.11h-9.11c1.53-4.74,1.26-9.53,1.26-14.3,0-6.31.03-12.63-.01-18.94-.02-3.01-.17-6.01-1.57-8.79,7.22,0,14.44,0,21.66,0Zm-13.61,10.95c0,2.4.02,4.81,0,7.21-.01,1.11.42,1.67,1.58,1.64,2-.05,4.02.1,6.01-.08,4.29-.39,7.67-4.25,7.71-8.6.04-4.32-3.35-8.19-7.68-8.59-1.99-.19-4-.05-6.01-.1-1.13-.02-1.63.46-1.62,1.61.04,2.3.01,4.61.01,6.91Z"/>
          <path class="cls-2" d="m203.39,402.06c4.82,12.2,9.61,24.4,14.48,36.58.73,1.83,1.86,3.49,2.92,5.44-3.2.54-6.5.06-10.2.28,1.13-2.83.1-5.1-.73-7.42-.37-1.04-.89-1.65-2.15-1.64-4.81.06-9.63-.02-14.44.07-.64.01-1.58.54-1.84,1.08-1.07,2.25-2.33,4.94-1.42,7.67h-5.74c3.93-5.55,5.67-11.87,8.16-17.84,3.36-8.04,6.52-16.15,9.77-24.23.4,0,.8,0,1.2,0Zm4.73,30.59c-2.49-6.41-4.87-12.56-7.45-19.21-2.6,6.7-5.32,12.72-7.58,19.21h15.02Z"/>
          <path class="cls-2" d="m338.24,402.06v7.02c-1.54-3.73-4.3-4.84-8.01-4.64-3.3.17-6.62.09-9.92.02-1.57-.03-2.13.62-2.11,2.14.05,4.01.04,8.02,0,12.03-.01,1.49.53,2.24,2.1,2.17,1.6-.06,3.21-.06,4.81,0,3.53.14,6.89-.05,8.96-3.75v10.53c-.55-.68-.89-1.05-1.17-1.45-1.23-1.78-3-2.69-5.09-2.8-2.6-.13-5.21-.03-7.82-.06-1.06-.01-1.79.3-1.77,1.49.08,5.4.13,10.81.29,16.21.03.96.52,1.91.87,3.11h-9.11c2.05-7.33,1.09-14.75,1.22-22.1.09-4.9-.04-9.82-.29-14.72-.09-1.75-.82-3.47-1.25-5.21h28.28Z"/>
          <path class="cls-2" d="m147.37,402.06c-.53,2.63-1.46,5.25-1.52,7.89-.21,9.72-.15,19.44-.17,29.17,0,2.61.03,2.62,2.65,2.65,2.2.02,4.41-.06,6.61.02,4.8.18,8.52-1.79,11.42-5.51.36-.46.71-.92,1.58-1.19-.59,2.77-1.09,5.57-1.87,8.3-.14.48-1.42.88-2.18.89-6.31.07-12.63.05-18.94.04-2.4,0-4.81-.08-7.21-.12v-.6c1.72-2.12,1.48-4.73,1.52-7.14.15-8.88.15-17.76,0-26.63-.04-2.41.19-5.03-1.52-7.15.2-.2.4-.57.6-.58,3.01-.04,6.02-.03,9.03-.03Z"/>
          <path class="cls-2" d="m367.18,402.06c-1.17,2.49-1.64,5.12-1.64,7.85,0,8.8-.08,17.6.05,26.4.04,2.56.65,5.11,1.01,7.82h-8.89c1.68-4.61,1.41-9.21,1.41-13.79,0-6.5.02-13-.01-19.5-.02-3.01-.3-5.98-1.57-8.78h9.63Z"/>
        </g>
      </g>
    </g>
  </g>
</svg>