<?xml version="1.0" encoding="UTF-8"?>
<svg id="Layer_2" data-name="Layer 2" xmlns="http://www.w3.org/2000/svg" viewBox="0 0 1595.33 531.01">
  <defs>
    <style>
      .cls-1 {
        stroke-width: 0px;
      }
    </style>
  </defs>
  <g id="Layer_1-2" data-name="Layer 1">
    <g>
      <path class="cls-1" d="m192.55,1c-2.35,3.74-3.95,9.79-7.18,10.85-30.17,9.92-35.95,21.46-18.07,48.64,22.65,34.44,47.96,67.16,72.54,100.31,23.5,31.68,47.89,62.69,71.03,94.63,4.23,5.84,5.97,14.68,6.05,22.16.52,49.33.16,98.67.35,148,.05,12.32.13,24.75,1.78,36.92,3.85,28.47,15.9,40.7,43.91,46.92,3.69.82,7.1,2.96,9.96,8.28h-190.56l-1.29-3.9c4.27-1.59,8.43-4,12.84-4.62,22.67-3.17,34.92-17.01,39.21-38.39,2.17-10.81,3.56-21.97,3.63-32.98.38-56.11.47-112.24-.07-168.35-.07-7.35-2.58-16-6.96-21.77-44.74-58.9-89.78-117.57-135.42-175.78C71.79,43.21,43.92,21.51,7.67,11.96,4.38,11.09,2.52,4.78,0,1c64.18,0,128.37,0,192.55,0Z"/>
      <g>
        <path class="cls-1" d="m546.17,0c-3.07,3.84-5.54,10.2-9.32,11.12-27.99,6.76-39.8,18.52-44.16,46.84-1.44,9.33-2.66,18.8-2.68,28.21-.22,90.9-.88,181.81.04,272.71.77,75.66,52.61,134.31,127.31,143.19,58.89,7,103.96-19.01,137.62-66.1,17.93-25.09,27.88-53.4,31.26-84.16,0,0,4.66-10.07,7.12-15.09,1.76,5.15,5.01,15.41,5.01,15.41-9.09,99.48-90.27,176.56-187.77,178.82-101.32,2.36-185.71-68.95-199.86-169.73-2.27-16.14-1.42-32.76-1.45-49.16-.13-70.7.11-141.41-.2-212.11-.06-14.46-1.07-29.04-3.17-43.34-4.04-27.48-16.1-39-43.15-45.5-3.97-.95-6.65-7.28-9.92-11.12C417.28,0,481.73,0,546.17,0Z"/>
        <path class="cls-1" d="m891.13,0c-1.71,3.88-2.88,10.77-5.21,11.18-73.67,13.06-86.65,88.96-93.47,101.55-3.35-13.29-14.54-86.79-89.15-101.32-3.7-.72-6.22-7.47-9.29-11.41,65.71,0,131.41,0,197.12,0Z"/>
      </g>
      <g>
        <path class="cls-1" d="m1032.92,169.85c-3.21,7.05-7.1,13.87-9.53,21.18-9.75,29.38-19.05,58.91-28.51,88.38-.26.8-.25,1.74-.69,2.4-1.28,1.92-2.73,3.73-4.11,5.58-1.2-1.75-2.82-3.35-3.54-5.27-8.19-21.95-16.24-43.95-24.34-65.93-1.16-3.13-2.37-6.25-4.03-10.58-1.11,2.8-1.95,4.6-2.56,6.47-7.18,22.3-14.32,44.6-21.47,66.9-.43,1.33-.72,2.74-1.39,3.94-.88,1.6-2.06,3.03-3.12,4.53-1.35-1.56-3.27-2.9-3.95-4.72-5.33-14.09-10.42-28.26-15.59-42.41-6.22-17.03-12.36-34.09-18.68-51.08-2.63-7.06-5.44-14.09-11.19-19.39h31.88c-3.94,5.63-3.35,11.41-1.04,17.51,7.2,19.01,14.19,38.1,21.31,57.14.58,1.55,1.48,2.97,2.55,5.07.9-2.49,1.52-4.04,2.04-5.62,5.6-17.21,11.16-34.43,16.77-51.63,2.8-8.57,6.51-16.6,13.73-22.47h1.68c-.53,7.12,1.38,13.77,3.85,20.33,6.66,17.71,13.27,35.44,19.92,53.15.72,1.9,1.57,3.76,3.05,7.26,7.54-23.46,14.6-45.08,21.39-66.78,1.54-4.94,1.33-10-2.91-13.97,6.15,0,12.3,0,18.46,0Z"/>
        <path class="cls-1" d="m1575.29,169.85c2,19.71,3.99,39.42,6.02,59.12.86,8.33,1.78,16.65,2.68,24.97,1.26,11.62,2.16,23.35,11.34,33.3h-31.8c.77-2.15,1.56-3.78,1.94-5.5.84-3.76,2.38-7.65,2.06-11.35-1.72-19.93-3.92-39.82-6.15-61.69-7.06,14.78-13.28,27.81-19.5,40.85-3.97,8.31-7.84,16.67-11.94,24.91-1.95,3.92-4.04,7.93-9.5,9.49-.74-14.24-7.51-25.84-13.42-37.76-6.06-12.22-12.11-24.45-18.17-36.69-.85.47-1.62.66-1.66.94-2.43,20.21-5.05,40.41-7.01,60.67-.5,5.19,1.1,10.59,1.78,16.24h-16.48c7.97-8.55,6.92-18.96,8.22-28.62,3.33-24.6,6.04-49.28,9.03-73.93.6-4.99,1.3-9.96,1.96-14.94,1.12,0,2.24,0,3.36,0,14.09,28.16,28.18,56.32,42.84,85.6,11.79-25.13,22.94-48.81,33.99-72.53,1.99-4.26,3.6-8.7,5.38-13.06,1.68,0,3.36,0,5.03,0Z"/>
        <path class="cls-1" d="m1378.84,169.85c1.93,1.02,3.89,2.01,5.8,3.08,11.52,6.47,17.47,16.34,16.91,29.52-.57,13.23-9.11,23.86-21.65,27.99-2.59.85-5.25,1.49-8.76,2.47,11.78,14.92,22.95,29.54,34.7,43.68,3.42,4.11,8.47,6.87,12.78,10.26-15.37,3.14-28.75.16-38.86-13.24-9.08-12.04-18.45-23.87-27.7-35.78-1.2-1.54-2.15-3.52-3.72-4.46-1.49-.89-3.79-1.2-5.45-.75-.95.26-1.94,2.57-1.91,3.93.36,16.67-1.98,33.55,3.74,50.49h-25.41c4.27-13.21,3.51-26.57,3.52-39.88.02-17.6.09-35.21-.03-52.81-.06-8.38-.46-16.77-4.37-24.5,20.13,0,40.27,0,60.4,0Zm-37.95,30.53c0,6.7.06,13.41-.03,20.11-.04,3.11,1.16,4.64,4.41,4.57,5.58-.13,11.21.27,16.75-.24,11.96-1.1,21.39-11.86,21.49-23.99.1-12.05-9.33-22.83-21.4-23.96-5.54-.52-11.16-.15-16.75-.27-3.15-.07-4.56,1.29-4.51,4.5.1,6.42.03,12.85.03,19.28Z"/>
        <path class="cls-1" d="m804.59,169.85c13.43,34,26.78,68.04,40.37,101.98,2.04,5.09,5.19,9.74,8.13,15.17-8.91,1.51-18.13.17-28.44.78,3.15-7.89.29-14.23-2.04-20.68-1.04-2.89-2.49-4.61-6-4.56-13.42.17-26.84-.04-40.25.21-1.78.03-4.42,1.5-5.14,3.02-2.99,6.29-6.5,13.76-3.97,21.4h-15.99c10.97-15.48,15.79-33.1,22.75-49.74,9.36-22.4,18.18-45.03,27.23-67.57,1.12,0,2.24,0,3.36,0Zm13.19,85.29c-6.93-17.88-13.58-35.01-20.76-53.54-7.25,18.69-14.84,35.45-21.12,53.54h41.89Z"/>
        <path class="cls-1" d="m1180.57,169.85v19.58c-4.29-10.4-11.98-13.49-22.34-12.94-9.2.49-18.45.25-27.67.06-4.37-.09-5.94,1.73-5.89,5.95.13,11.18.12,22.37.01,33.55-.04,4.16,1.47,6.23,5.86,6.06,4.47-.17,8.95-.16,13.42.02,9.84.38,19.22-.14,24.97-10.46v29.36c-1.54-1.9-2.47-2.92-3.25-4.04-3.43-4.97-8.36-7.5-14.18-7.79-7.25-.36-14.53-.07-21.8-.16-2.94-.03-4.98.84-4.93,4.16.22,15.06.37,30.13.82,45.19.08,2.69,1.45,5.33,2.42,8.66h-25.39c5.72-20.44,3.03-41.12,3.4-61.63.25-13.67-.12-27.38-.82-41.04-.25-4.89-2.28-9.68-3.5-14.52h78.86Z"/>
        <path class="cls-1" d="m648.41,169.85c-1.48,7.33-4.06,14.63-4.23,21.99-.6,27.09-.42,54.21-.47,81.31-.01,7.26.09,7.31,7.38,7.38,6.15.06,12.3-.18,18.44.05,13.38.5,23.75-5,31.83-15.36.99-1.27,1.97-2.55,4.4-3.31-1.65,7.73-3.05,15.54-5.21,23.13-.38,1.33-3.96,2.46-6.07,2.48-17.6.2-35.21.15-52.81.1-6.7-.02-13.4-.22-20.1-.34v-1.68c4.81-5.9,4.12-13.19,4.23-19.91.41-24.75.42-49.51,0-74.25-.11-6.72.52-14.01-4.24-19.93.56-.56,1.11-1.6,1.68-1.61,8.39-.1,16.78-.07,25.17-.07Z"/>
        <path class="cls-1" d="m1261.25,169.85c-3.25,6.93-4.56,14.27-4.56,21.88,0,24.54-.22,49.08.13,73.62.1,7.14,1.8,14.25,2.82,21.81h-24.77c4.67-12.85,3.93-25.69,3.94-38.46.02-18.13.06-36.25-.03-54.38-.04-8.38-.84-16.68-4.38-24.47h26.84Z"/>
      </g>
    </g>
  </g>
</svg>